<?xml version="1.0" encoding="UTF-8"?>
<!DOCTYPE svg PUBLIC "-//W3C//DTD SVG 1.1//EN" "http://www.w3.org/Graphics/SVG/1.1/DTD/svg11.dtd">
<svg xmlns="http://www.w3.org/2000/svg" version="1.1" width="32px" height="32px" style="shape-rendering:geometricPrecision; text-rendering:geometricPrecision; image-rendering:optimizeQuality; fill-rule:evenodd; clip-rule:evenodd" xmlns:xlink="http://www.w3.org/1999/xlink">
<g><path style="opacity:0.973" fill="#f8a645" d="M 12.5,-0.5 C 14.5,-0.5 16.5,-0.5 18.5,-0.5C 19.1667,0.5 19.8333,1.5 20.5,2.5C 20.5,2.83333 20.5,3.16667 20.5,3.5C 20.1667,3.5 19.8333,3.5 19.5,3.5C 16.997,2.62949 14.3303,1.96282 11.5,1.5C 11.8333,0.833333 12.1667,0.166667 12.5,-0.5 Z"/></g>
<g><path style="opacity:1" fill="#f9a732" d="M 11.5,1.5 C 14.3303,1.96282 16.997,2.62949 19.5,3.5C 19.6716,4.49162 19.3382,5.15829 18.5,5.5C 16.5,4.16667 14.5,4.16667 12.5,5.5C 11.8333,5.16667 11.1667,4.83333 10.5,4.5C 10.5,3.83333 10.5,3.16667 10.5,2.5C 10.5,1.83333 10.8333,1.5 11.5,1.5 Z"/></g>
<g><path style="opacity:0.981" fill="#fae743" d="M 20.5,3.5 C 20.5,3.16667 20.5,2.83333 20.5,2.5C 26.6923,1.51886 29.359,4.18553 28.5,10.5C 28.1667,10.5 27.8333,10.5 27.5,10.5C 25.5,7.83333 23.1667,5.5 20.5,3.5 Z"/></g>
<g><path style="opacity:1" fill="#f47f5e" d="M 5.5,3.5 C 6.91866,2.54885 8.58533,2.21552 10.5,2.5C 10.5,3.16667 10.5,3.83333 10.5,4.5C 10.5,6.5 10.5,8.5 10.5,10.5C 9.5,10.5 8.5,10.5 7.5,10.5C 8.01017,7.61221 7.34351,5.27887 5.5,3.5 Z"/></g>
<g><path style="opacity:1" fill="#faad2b" d="M 18.5,5.5 C 17.6935,6.72813 16.6935,7.72813 15.5,8.5C 14.1667,7.83333 13.1667,6.83333 12.5,5.5C 14.5,4.16667 16.5,4.16667 18.5,5.5 Z"/></g>
<g><path style="opacity:1" fill="#efe22b" d="M 20.5,3.5 C 23.1667,5.5 25.5,7.83333 27.5,10.5C 25.1667,10.5 22.8333,10.5 20.5,10.5C 20.5,8.16667 20.5,5.83333 20.5,3.5 Z"/></g>
<g><path style="opacity:0.855" fill="#f1737a" d="M 5.5,3.5 C 4.63137,5.71702 4.29803,8.05035 4.5,10.5C 4.5,10.8333 4.5,11.1667 4.5,11.5C 4.16667,11.5 3.83333,11.5 3.5,11.5C 3.5,10.8333 3.16667,10.5 2.5,10.5C 2.33982,8.80081 2.50649,7.13414 3,5.5C 3.41691,4.24402 4.25025,3.57735 5.5,3.5 Z"/></g>
<g><path style="opacity:1" fill="#f26c64" d="M 5.5,3.5 C 7.34351,5.27887 8.01017,7.61221 7.5,10.5C 6.5,10.5 5.5,10.5 4.5,10.5C 4.29803,8.05035 4.63137,5.71702 5.5,3.5 Z"/></g>
<g><path style="opacity:1" fill="#daa60b" d="M 19.5,3.5 C 19.8333,3.5 20.1667,3.5 20.5,3.5C 20.5,5.83333 20.5,8.16667 20.5,10.5C 19.8333,10.5 19.5,10.8333 19.5,11.5C 17.9382,11.7329 16.6049,12.3995 15.5,13.5C 15.5,11.8333 15.5,10.1667 15.5,8.5C 16.6935,7.72813 17.6935,6.72813 18.5,5.5C 19.3382,5.15829 19.6716,4.49162 19.5,3.5 Z"/></g>
<g><path style="opacity:1" fill="#ed5809" d="M 10.5,4.5 C 11.1667,4.83333 11.8333,5.16667 12.5,5.5C 13.1667,6.83333 14.1667,7.83333 15.5,8.5C 15.5,10.1667 15.5,11.8333 15.5,13.5C 15.5,14.1667 15.5,14.8333 15.5,15.5C 15.1667,15.5 14.8333,15.5 14.5,15.5C 14.6308,12.6333 13.2974,10.9666 10.5,10.5C 10.5,8.5 10.5,6.5 10.5,4.5 Z"/></g>
<g><path style="opacity:0.993" fill="#d489b0" d="M 2.5,10.5 C 3.16667,10.5 3.5,10.8333 3.5,11.5C 3.5,14.5 3.5,17.5 3.5,20.5C 3.16667,20.5 2.83333,20.5 2.5,20.5C 1.83333,20.5 1.5,20.1667 1.5,19.5C 1.5,16.8333 1.5,14.1667 1.5,11.5C 1.5,10.8333 1.83333,10.5 2.5,10.5 Z"/></g>
<g><path style="opacity:1" fill="#c81c0e" d="M 4.5,11.5 C 4.5,11.1667 4.5,10.8333 4.5,10.5C 5.5,10.5 6.5,10.5 7.5,10.5C 8.5,10.5 9.5,10.5 10.5,10.5C 13.2974,10.9666 14.6308,12.6333 14.5,15.5C 12.5,15.5 10.5,15.5 8.5,15.5C 7.5,13.8333 6.16667,12.5 4.5,11.5 Z"/></g>
<g><path style="opacity:1" fill="#90b81d" d="M 19.5,11.5 C 19.5,10.8333 19.8333,10.5 20.5,10.5C 22.8333,10.5 25.1667,10.5 27.5,10.5C 27.1667,11.1667 26.8333,11.8333 26.5,12.5C 25.1283,13.5116 23.795,14.5116 22.5,15.5C 22.1667,15.5 21.8333,15.5 21.5,15.5C 21.8432,13.5168 21.1765,12.1834 19.5,11.5 Z"/></g>
<g><path style="opacity:1" fill="#6da317" d="M 19.5,11.5 C 21.1765,12.1834 21.8432,13.5168 21.5,15.5C 19.8333,15.5 18.1667,15.5 16.5,15.5C 16.1667,15.5 15.8333,15.5 15.5,15.5C 15.5,14.8333 15.5,14.1667 15.5,13.5C 16.6049,12.3995 17.9382,11.7329 19.5,11.5 Z"/></g>
<g><path style="opacity:1" fill="#b8d75a" d="M 27.5,10.5 C 27.8333,10.5 28.1667,10.5 28.5,10.5C 29.1667,10.5 29.5,10.8333 29.5,11.5C 28.1667,14.1667 28.1667,16.8333 29.5,19.5C 29.5,20.1667 29.1667,20.5 28.5,20.5C 28.1667,20.5 27.8333,20.5 27.5,20.5C 27.1667,20.5 26.8333,20.5 26.5,20.5C 26.5,20.1667 26.5,19.8333 26.5,19.5C 26.5,17.1667 26.5,14.8333 26.5,12.5C 26.8333,11.8333 27.1667,11.1667 27.5,10.5 Z"/></g>
<g><path style="opacity:1" fill="#d37fa2" d="M 3.5,11.5 C 3.83333,11.5 4.16667,11.5 4.5,11.5C 5.21862,13.7638 5.55195,16.0971 5.5,18.5C 5.16667,19.1667 4.83333,19.8333 4.5,20.5C 4.16667,20.5 3.83333,20.5 3.5,20.5C 3.5,17.5 3.5,14.5 3.5,11.5 Z"/></g>
<g><path style="opacity:1" fill="#a0cd5c" d="M 26.5,12.5 C 26.5,14.8333 26.5,17.1667 26.5,19.5C 24.8333,18.5 23.5,17.1667 22.5,15.5C 23.795,14.5116 25.1283,13.5116 26.5,12.5 Z"/></g>
<g><path style="opacity:1" fill="#c5db54" d="M 29.5,11.5 C 30.1667,11.8333 30.8333,12.1667 31.5,12.5C 31.5,14.5 31.5,16.5 31.5,18.5C 30.8333,18.8333 30.1667,19.1667 29.5,19.5C 28.1667,16.8333 28.1667,14.1667 29.5,11.5 Z"/></g>
<g><path style="opacity:0.949" fill="#d191be" d="M 1.5,11.5 C 1.5,14.1667 1.5,16.8333 1.5,19.5C 0.833333,19.1667 0.166667,18.8333 -0.5,18.5C -0.5,16.5 -0.5,14.5 -0.5,12.5C 0.166667,12.1667 0.833333,11.8333 1.5,11.5 Z"/></g>
<g><path style="opacity:1" fill="#d6708c" d="M 4.5,11.5 C 6.16667,12.5 7.5,13.8333 8.5,15.5C 7.83333,16.8333 6.83333,17.8333 5.5,18.5C 5.55195,16.0971 5.21862,13.7638 4.5,11.5 Z"/></g>
<g><path style="opacity:1" fill="#277548" d="M 16.5,15.5 C 18.1667,15.5 19.8333,15.5 21.5,15.5C 20.6993,17.0418 20.366,18.7085 20.5,20.5C 18.457,19.4206 17.1237,17.754 16.5,15.5 Z"/></g>
<g><path style="opacity:1" fill="#993e65" d="M 8.5,15.5 C 10.5,15.5 12.5,15.5 14.5,15.5C 14.8333,15.5 15.1667,15.5 15.5,15.5C 15.5,16.1667 15.5,16.8333 15.5,17.5C 13.8869,18.6923 12.2202,19.6923 10.5,20.5C 8.83333,20.5 7.16667,20.5 5.5,20.5C 5.16667,20.5 4.83333,20.5 4.5,20.5C 4.83333,19.8333 5.16667,19.1667 5.5,18.5C 6.83333,17.8333 7.83333,16.8333 8.5,15.5 Z"/></g>
<g><path style="opacity:1" fill="#459c59" d="M 21.5,15.5 C 21.8333,15.5 22.1667,15.5 22.5,15.5C 23.5,17.1667 24.8333,18.5 26.5,19.5C 26.5,19.8333 26.5,20.1667 26.5,20.5C 24.5,20.5 22.5,20.5 20.5,20.5C 20.366,18.7085 20.6993,17.0418 21.5,15.5 Z"/></g>
<g><path style="opacity:0.958" fill="#a092c5" d="M 2.5,20.5 C 2.83333,20.5 3.16667,20.5 3.5,20.5C 3.83333,20.5 4.16667,20.5 4.5,20.5C 5.38905,22.736 6.72239,24.736 8.5,26.5C 7.67504,27.3857 6.67504,27.719 5.5,27.5C 2.90781,25.9639 1.90781,23.6305 2.5,20.5 Z"/></g>
<g><path style="opacity:0.978" fill="#a893c5" d="M 4.5,20.5 C 4.83333,20.5 5.16667,20.5 5.5,20.5C 7.16667,22.1667 8.83333,23.8333 10.5,25.5C 10.5,25.8333 10.5,26.1667 10.5,26.5C 10.5,26.8333 10.5,27.1667 10.5,27.5C 10.5,27.8333 10.5,28.1667 10.5,28.5C 8.58533,28.7845 6.91866,28.4511 5.5,27.5C 6.67504,27.719 7.67504,27.3857 8.5,26.5C 6.72239,24.736 5.38905,22.736 4.5,20.5 Z"/></g>
<g><path style="opacity:1" fill="#ac8ec1" d="M 5.5,20.5 C 7.16667,20.5 8.83333,20.5 10.5,20.5C 10.5,22.1667 10.5,23.8333 10.5,25.5C 8.83333,23.8333 7.16667,22.1667 5.5,20.5 Z"/></g>
<g><path style="opacity:1" fill="#5b5296" d="M 15.5,17.5 C 16.7199,19.0496 16.7199,20.7163 15.5,22.5C 13.8333,23.5 12.5,24.8333 11.5,26.5C 11.1667,26.5 10.8333,26.5 10.5,26.5C 10.5,26.1667 10.5,25.8333 10.5,25.5C 10.5,23.8333 10.5,22.1667 10.5,20.5C 12.2202,19.6923 13.8869,18.6923 15.5,17.5 Z"/></g>
<g><path style="opacity:1" fill="#39739a" d="M 15.5,15.5 C 15.8333,15.5 16.1667,15.5 16.5,15.5C 17.1237,17.754 18.457,19.4206 20.5,20.5C 20.5,22.1667 20.5,23.8333 20.5,25.5C 20.5,25.8333 20.5,26.1667 20.5,26.5C 19.5,25.8333 18.5,25.1667 17.5,24.5C 17.1667,23.5 16.5,22.8333 15.5,22.5C 16.7199,20.7163 16.7199,19.0496 15.5,17.5C 15.5,16.8333 15.5,16.1667 15.5,15.5 Z"/></g>
<g><path style="opacity:1" fill="#6cbfa8" d="M 20.5,20.5 C 22.5,20.5 24.5,20.5 26.5,20.5C 26.8333,20.5 27.1667,20.5 27.5,20.5C 25.4687,22.5224 23.1354,24.1891 20.5,25.5C 20.5,23.8333 20.5,22.1667 20.5,20.5 Z"/></g>
<g><path style="opacity:1" fill="#77c69a" d="M 27.5,20.5 C 27.8333,20.5 28.1667,20.5 28.5,20.5C 29.1667,26.5 26.5,29.1667 20.5,28.5C 20.5,28.1667 20.5,27.8333 20.5,27.5C 20.5,27.1667 20.5,26.8333 20.5,26.5C 20.5,26.1667 20.5,25.8333 20.5,25.5C 23.1354,24.1891 25.4687,22.5224 27.5,20.5 Z"/></g>
<g><path style="opacity:1" fill="#7aa3d4" d="M 15.5,22.5 C 16.5,22.8333 17.1667,23.5 17.5,24.5C 16.0821,26.3079 14.0821,26.9746 11.5,26.5C 12.5,24.8333 13.8333,23.5 15.5,22.5 Z"/></g>
<g><path style="opacity:1" fill="#74a9d6" d="M 17.5,24.5 C 18.5,25.1667 19.5,25.8333 20.5,26.5C 20.5,26.8333 20.5,27.1667 20.5,27.5C 16.9558,27.7195 13.6224,27.7195 10.5,27.5C 10.5,27.1667 10.5,26.8333 10.5,26.5C 10.8333,26.5 11.1667,26.5 11.5,26.5C 14.0821,26.9746 16.0821,26.3079 17.5,24.5 Z"/></g>
<g><path style="opacity:1" fill="#77b3e0" d="M 10.5,27.5 C 13.6224,27.7195 16.9558,27.7195 20.5,27.5C 20.5,27.8333 20.5,28.1667 20.5,28.5C 20.5,29.1667 20.1667,29.5 19.5,29.5C 16.8333,29.5 14.1667,29.5 11.5,29.5C 10.8333,29.5 10.5,29.1667 10.5,28.5C 10.5,28.1667 10.5,27.8333 10.5,27.5 Z"/></g>
<g><path style="opacity:0.961" fill="#76bae5" d="M 11.5,29.5 C 14.1667,29.5 16.8333,29.5 19.5,29.5C 19.1667,30.1667 18.8333,30.8333 18.5,31.5C 16.5,31.5 14.5,31.5 12.5,31.5C 12.1667,30.8333 11.8333,30.1667 11.5,29.5 Z"/></g>
</svg>
